<svg width="21" height="12" viewBox="0 0 21 12" fill="none" xmlns="http://www.w3.org/2000/svg">
<circle cx="1" cy="1" r="1" transform="matrix(-4.37114e-08 -1 -1 4.37114e-08 7 7)" fill="#FFC900" stroke="#FFC900"/>
<path d="M0 6C1.5 6 3 5.1 3 3.5C3 2 2 1 0.5 1" stroke="#FFC900"/>
<path d="M0 6C1.5 6 3 6.9 3 8.5C3 10 2 11 0.5 11" stroke="#FFC900"/>
<path d="M16.7773 3C14.9975 3 13.125 3.6 10 6C13.125 8.4 14.9975 9 16.7773 9C18.5572 9 20 7.65685 20 6C20 4.34315 18.5572 3 16.7773 3Z" stroke="#FFC900"/>
</svg>
